<?xml version="1.0" standalone="no"?>
<!DOCTYPE svg PUBLIC "-//W3C//DTD SVG 20010904//EN"
 "http://www.w3.org/TR/2001/REC-SVG-20010904/DTD/svg10.dtd">
<svg version="1.0" xmlns="http://www.w3.org/2000/svg"
 width="260.000000pt" height="260.000000pt" viewBox="0 0 260.000000 260.000000"
 preserveAspectRatio="xMidYMid meet">
<metadata>
Created by potrace 1.11, written by Peter Selinger 2001-2013
</metadata>
<g transform="translate(0.000000,260.000000) scale(0.100000,-0.100000)"
fill="#000000" stroke="none">
<path d="M0 1300 l0 -1300 1300 0 1300 0 0 1300 0 1300 -1300 0 -1300 0 0
-1300z m1495 840 c50 -19 125 -62 181 -105 9 -6 50 2 126 24 62 19 121 36 130
38 38 11 32 -29 -16 -119 -26 -48 -45 -92 -42 -96 3 -5 43 -14 90 -21 82 -12
89 -16 171 -78 48 -35 89 -71 92 -80 7 -18 -223 -253 -248 -253 -8 0 -42 18
-74 41 -31 22 -60 37 -63 34 -3 -3 -9 -61 -14 -129 l-9 -124 -51 -93 -52 -92
-31 -243 c-17 -134 -33 -245 -36 -247 -2 -2 -53 -41 -113 -85 l-109 -82 -127
0 -127 0 -109 82 c-60 44 -111 83 -113 85 -3 2 -19 113 -36 247 l-31 243 -52
92 -51 93 -9 124 c-5 68 -11 126 -14 129 -3 3 -32 -12 -63 -34 -32 -23 -66
-41 -74 -41 -25 0 -255 235 -248 253 3 9 44 45 92 80 82 62 89 66 171 78 47 7
87 16 90 21 3 5 -15 46 -40 92 -46 85 -54 110 -36 121 5 3 62 -10 126 -30 64
-19 123 -35 131 -35 8 0 31 13 51 29 48 39 126 77 193 96 82 23 266 15 344
-15z"/>
<path d="M1160 2102 c-71 -19 -141 -56 -196 -104 l-36 -32 -104 31 c-58 17
-104 27 -102 23 2 -5 21 -42 42 -82 22 -41 37 -81 34 -90 -4 -10 -37 -20 -113
-31 -99 -16 -112 -20 -171 -62 -35 -25 -65 -49 -68 -53 -3 -5 37 -50 89 -102
l93 -93 74 52 c75 51 92 59 102 42 3 -5 11 -78 17 -162 l11 -153 51 -89 50
-88 31 -240 31 -240 99 -75 99 -74 107 0 107 0 99 74 99 75 31 240 31 240 50
88 51 89 11 153 c6 84 14 157 17 162 10 17 27 9 102 -42 l74 -52 93 93 c52 52
92 97 89 102 -3 4 -33 28 -68 53 -59 42 -72 46 -171 62 -76 11 -109 21 -113
31 -3 9 12 49 34 90 21 40 40 77 42 82 2 4 -44 -6 -102 -23 l-106 -31 -27 26
c-115 109 -313 154 -483 110z m260 -117 c19 -9 49 -28 66 -41 l31 -23 -18 -68
c-74 -277 -76 -808 -3 -1160 l6 -31 -38 9 c-64 14 -276 11 -323 -6 -22 -8 -41
-11 -41 -7 0 4 7 43 15 86 63 326 59 825 -7 1075 -11 42 -21 82 -21 90 -2 16
83 77 127 91 47 14 165 6 206 -15z"/>
</g>
</svg>
