<?xml version="1.0" encoding="utf-8"?>
<svg version="1.1" id="Capa_1" xmlns="http://www.w3.org/2000/svg" xmlns:xlink="http://www.w3.org/1999/xlink" x="0px" y="0px"
	 width="34px" height="33px" viewBox="0 0 34 33" enable-background="new 0 0 34 33" xml:space="preserve">
<path fill-rule="evenodd" clip-rule="evenodd" fill="#FFFFFF" d="M16.999,0C7.612,0,0,7.574,0,16.919
	c0,7.474,4.871,13.815,11.626,16.052c0.85,0.155,1.16-0.367,1.16-0.815c0-0.402-0.015-1.466-0.023-2.877
	C8.035,30.3,7.037,27.01,7.037,27.01c-0.773-1.954-1.887-2.475-1.887-2.475c-1.544-1.05,0.117-1.028,0.117-1.028
	c1.706,0.12,2.604,1.743,2.604,1.743c1.516,2.585,3.979,1.839,4.947,1.406c0.154-1.093,0.594-1.839,1.079-2.262
	c-3.775-0.427-7.744-1.878-7.744-8.361c0-1.847,0.662-3.357,1.75-4.54C7.729,11.066,7.145,9.346,8.07,7.016
	c0,0,1.427-0.455,4.675,1.734c1.356-0.375,2.81-0.563,4.256-0.569c1.444,0.007,2.898,0.194,4.256,0.569
	c3.246-2.189,4.67-1.734,4.67-1.734c0.927,2.329,0.344,4.049,0.169,4.477c1.09,1.183,1.747,2.693,1.747,4.54
	c0,6.499-3.975,7.929-7.762,8.348c0.61,0.522,1.154,1.555,1.154,3.133c0,2.262-0.021,4.086-0.021,4.641
	c0,0.452,0.306,0.979,1.169,0.814C29.134,30.727,34,24.391,34,16.919C34,7.574,26.388,0,16.999,0z"/>
</svg>
