<?xml version="1.0" encoding="utf-8"?>
<!-- Generator: Adobe Illustrator 17.0.0, SVG Export Plug-In . SVG Version: 6.00 Build 0)  -->
<!DOCTYPE svg PUBLIC "-//W3C//DTD SVG 1.1//EN" "http://www.w3.org/Graphics/SVG/1.1/DTD/svg11.dtd">
<svg version="1.1" id="Capa_1" xmlns="http://www.w3.org/2000/svg" xmlns:xlink="http://www.w3.org/1999/xlink" x="0px" y="0px"
	 width="90px" height="84px" viewBox="0 0 90 84" enable-background="new 0 0 90 84" xml:space="preserve">
<path fill="#FFFFFF" d="M50.466,84H39.534c-0.273,0-0.538-0.087-0.757-0.249l-10.426-7.709c-0.277-0.205-0.459-0.513-0.503-0.854
	l-3.001-23.113l-4.826-8.506c-0.094-0.165-0.149-0.349-0.162-0.538l-0.832-12.44l-6.105,4.184c-0.504,0.346-1.185,0.284-1.618-0.148
	L0.372,23.739c-0.261-0.26-0.395-0.62-0.369-0.986c0.027-0.367,0.212-0.703,0.508-0.923l8.107-6.016
	c0.164-0.122,0.355-0.202,0.557-0.235l8.655-1.388l-4.767-8.725c-0.246-0.45-0.195-1.003,0.129-1.401
	c0.324-0.398,0.857-0.562,1.35-0.415l11.828,3.519C31.293,2.476,37.679,0,44.891,0C44.928,0,44.965,0.001,45,0.004
	C45.036,0.001,45.072,0,45.109,0c7.212,0,13.598,2.476,18.521,7.169L75.457,3.65c0.492-0.146,1.026,0.017,1.35,0.415
	c0.324,0.398,0.375,0.951,0.129,1.401l-4.767,8.725l8.656,1.388c0.202,0.032,0.393,0.113,0.557,0.235l8.107,6.016
	c0.296,0.22,0.481,0.556,0.508,0.923s-0.108,0.726-0.369,0.986L78.695,34.628c-0.433,0.432-1.114,0.494-1.618,0.148l-6.105-4.184
	l-0.832,12.44c-0.013,0.189-0.068,0.373-0.162,0.538l-4.826,8.506l-3.001,23.113c-0.044,0.341-0.226,0.649-0.503,0.854
	l-10.426,7.709C51.004,83.913,50.739,84,50.466,84z M39.954,81.47h10.093l9.656-7.139l2.964-22.825
	c0.021-0.162,0.073-0.318,0.154-0.46l4.806-8.47l0.962-14.37c0.03-0.454,0.303-0.856,0.714-1.055
	c0.411-0.198,0.897-0.162,1.273,0.097l7.073,4.847l9.146-9.11l-6.679-4.956l-10.12-1.623c-0.407-0.065-0.757-0.323-0.938-0.691
	c-0.181-0.368-0.172-0.802,0.024-1.162l4.152-7.6l-9.596,2.855c-0.449,0.134-0.937,0.01-1.268-0.324
	C57.88,4.949,51.935,2.545,45.174,2.53c-0.115,0.013-0.235,0.013-0.348,0C38.065,2.545,32.12,4.949,27.631,9.483
	c-0.33,0.333-0.817,0.458-1.268,0.324l-9.596-2.855l4.152,7.6c0.197,0.361,0.206,0.794,0.025,1.162
	c-0.182,0.368-0.531,0.626-0.938,0.691L9.886,18.028l-6.68,4.956l9.146,9.11l7.073-4.847c0.376-0.258,0.862-0.295,1.273-0.097
	c0.411,0.198,0.684,0.601,0.714,1.055l0.962,14.37l4.806,8.47c0.081,0.142,0.133,0.298,0.154,0.46l2.964,22.825L39.954,81.47z"/>
<path fill="#FFFFFF" d="M54.954,71.227c-0.001-0.004-5.197-2.545-5.197-2.545h-9.55c0,0-5.23,3.081-5.233,3.086
	c2.222-5.743,3.491-25.177,3.491-32.211c0-7.651-1.5-21.455-4.098-27.531c2.898-2.756,6.394-4.483,10.421-4.483
	c4.221,0,7.857,1.716,10.831,4.688c0.004-0.01,0.008-0.039,0.013-0.049c-2.519,6.012-3.971,19.853-3.971,27.38
	C51.661,46.381,52.856,65.609,54.954,71.227z"/>
</svg>
